name Walk2.mot
datacolumns 19
datarows 30
range 1.54600000 1.57500000
endheader

                time	   L_ground_force_vx	   L_ground_force_vy	   L_ground_force_vz	   L_ground_force_px	   L_ground_force_py	   L_ground_force_pz	   R_ground_force_vx	   R_ground_force_vy	   R_ground_force_vz	   R_ground_force_px	   R_ground_force_py	   R_ground_force_pz	   L_ground_torque_x	   L_ground_torque_y	   L_ground_torque_z	   R_ground_torque_x	   R_ground_torque_y	   R_ground_torque_z	
          1.54600000	          0.00000000	          0.00000000	          0.00000000	          0.00000000	          0.00000000	          0.00000000	         13.17043414	         47.41701205	          3.59255249	          0.21412714	          0.00000000	          0.04988485	          0.00000000	          0.00000000	          0.00000000	          0.00000000	         -3.86792015	          0.00000000	
          1.54700000	          0.00000000	          0.00000000	          0.00000000	          0.00000000	          0.00000000	          0.00000000	         12.22003837	         43.44082605	          3.55871916	          0.20690405	          0.00000000	          0.04827869	          0.00000000	          0.00000000	          0.00000000	          0.00000000	         -3.64407887	          0.00000000	
          1.54800000	          0.00000000	          0.00000000	          0.00000000	          0.00000000	          0.00000000	          0.00000000	         11.30461112	         39.64106006	          3.51471934	          0.19956066	          0.00000000	          0.04663890	          0.00000000	          0.00000000	          0.00000000	          0.00000000	         -3.42576803	          0.00000000	
          1.54900000	          0.00000000	          0.00000000	          0.00000000	          0.00000000	          0.00000000	          0.00000000	         10.42448432	         36.01604885	          3.46142050	          0.19211775	          0.00000000	          0.04497008	          0.00000000	          0.00000000	          0.00000000	          0.00000000	         -3.21323146	          0.00000000	
          1.55000000	          0.00000000	          0.00000000	          0.00000000	          0.00000000	          0.00000000	          0.00000000	          9.57988494	         32.56390960	          3.39969768	          0.18459839	          0.00000000	          0.04327752	          0.00000000	          0.00000000	          0.00000000	          0.00000000	         -3.00670369	          0.00000000	
          1.55100000	          0.00000000	          0.00000000	          0.00000000	          0.00000000	          0.00000000	          0.00000000	          8.77092963	         29.28254067	          3.33042692	          0.17702814	          0.00000000	          0.04156723	          0.00000000	          0.00000000	          0.00000000	          0.00000000	         -2.80640650	          0.00000000	
          1.55200000	          0.00000000	          0.00000000	          0.00000000	          0.00000000	          0.00000000	         -0.00000000	          7.99762036	         26.16960060	          3.25447510	          0.16943476	          0.00000000	          0.03984584	          0.00000000	          0.00000000	          0.00000000	          0.00000000	         -2.61254360	          0.00000000	
          1.55300000	          0.00000000	          0.00000000	          0.00000000	          0.00000000	          0.00000000	         -0.00000000	          7.25984104	         23.22245849	          3.17268508	          0.16184706	          0.00000000	          0.03812033	          0.00000000	          0.00000000	          0.00000000	          0.00000000	         -2.42529276	          0.00000000	
          1.55400000	          0.00000000	          0.00000000	          0.00000000	          0.00000000	          0.00000000	         -0.00000000	          6.55735754	         20.43814242	          3.08586034	          0.15429292	          0.00000000	          0.03639748	          0.00000000	          0.00000000	          0.00000000	          0.00000000	         -2.24479814	          0.00000000	
          1.55500000	          0.00000000	          0.00000000	          0.00000000	          0.00000000	          0.00000000	         -0.00000000	          5.88982339	         17.81332951	          2.99475705	          0.14679803	          0.00000000	          0.03468357	          0.00000000	          0.00000000	          0.00000000	          0.00000000	         -2.07116736	          0.00000000	
          1.55600000	          0.00000000	          0.00000000	          0.00000000	          0.00000000	          0.00000000	         -0.00000000	          5.25678949	         15.34437670	          2.90008325	          0.13938567	          0.00000000	          0.03298433	          0.00000000	          0.00000000	          0.00000000	          0.00000000	         -1.90447294	          0.00000000	
          1.55700000	          0.00000000	          0.00000000	          0.00000000	          0.00000000	          0.00000000	         -0.00000000	          4.65771459	         13.02736170	          2.80250028	          0.13207683	          0.00000000	          0.03130493	          0.00000000	          0.00000000	          0.00000000	          0.00000000	         -1.74475500	          0.00000000	
          1.55800000	          0.00000000	          0.00000000	          0.00000000	          0.00000000	          0.00000000	         -0.00000000	          4.09197512	         10.85812161	          2.70262422	          0.12489034	          0.00000000	          0.02965002	          0.00000000	         -0.00000000	          0.00000000	          0.00000000	         -1.59202393	          0.00000000	
          1.55900000	          0.00000000	          0.00000000	          0.00000000	          0.00000000	          0.00000000	         -0.00000000	          3.55887455	          8.83228903	          2.60102745	          0.11784293	          0.00000000	          0.02802377	          0.00000000	         -0.00000000	          0.00000000	          0.00000000	         -1.44626280	          0.00000000	
          1.56000000	          0.00000000	          0.00000000	         -0.00000000	          0.00000000	          0.00000000	         -0.00000000	          3.05765225	          6.94532600	          2.49824018	          0.11094943	          0.00000000	          0.02642990	          0.00000000	         -0.00000000	          0.00000000	          0.00000000	         -1.30742980	          0.00000000	
          1.56100000	          0.00000000	          0.00000000	         -0.00000000	         -0.00000000	          0.00000000	         -0.00000000	          2.58749180	          5.19255566	          2.39475205	          0.10422279	          0.00000000	          0.02487168	          0.00000000	         -0.00000000	          0.00000000	          0.00000000	         -1.17546049	          0.00000000	
          1.56200000	          0.00000000	          0.00000000	         -0.00000000	         -0.00000000	          0.00000000	         -0.00000000	          2.14752882	          3.56919170	          2.29101369	          0.09767424	          0.00000000	          0.02335196	          0.00000000	         -0.00000000	          0.00000000	          0.00000000	         -1.05026996	          0.00000000	
          1.56300000	          0.00000000	          0.00000000	         -0.00000000	         -0.00000000	          0.00000000	         -0.00000000	          1.73685831	          2.07036576	          2.18743840	          0.09131339	          0.00000000	          0.02187321	          0.00000000	         -0.00000000	          0.00000000	          0.00000000	         -0.93175493	          0.00000000	
          1.56400000	          0.00000000	          0.00000000	         -0.00000000	         -0.00000000	          0.00000000	         -0.00000000	          1.35454154	          0.69115281	          2.08440369	          0.08514831	          0.00000000	          0.02043754	          0.00000000	         -0.00000000	          0.00000000	          0.00000000	         -0.81979566	          0.00000000	
          1.56500000	          0.00000000	          0.00000000	         -0.00000000	         -0.00000000	          0.00000000	         -0.00000000	          0.99961244	         -0.57340542	          1.98225294	          0.07918566	          0.00000000	          0.01904670	          0.00000000	         -0.00000000	          0.00000000	          0.00000000	         -0.71425781	          0.00000000	
          1.56600000	          0.00000000	          0.00000000	         -0.00000000	         -0.00000000	          0.00000000	         -0.00000000	          0.67108358	         -1.72827887	          1.88129700	          0.07343075	          0.00000000	          0.01770215	          0.00000000	         -0.00000000	          0.00000000	          0.00000000	         -0.61499422	          0.00000000	
          1.56700000	          0.00000000	          0.00000000	         -0.00000000	         -0.00000000	          0.00000000	         -0.00000000	          0.36795174	         -2.77842941	          1.78181577	          0.06788767	          0.00000000	          0.01640502	          0.00000000	         -0.00000000	          0.00000000	          0.00000000	         -0.52184651	          0.00000000	
          1.56800000	          0.00000000	          0.00000000	         -0.00000000	         -0.00000000	          0.00000000	         -0.00000000	          0.08920304	         -3.72879274	          1.68405978	          0.06255936	          0.00000000	          0.01515619	          0.00000000	         -0.00000000	          0.00000000	          0.00000000	         -0.43464667	          0.00000000	
          1.56900000	          0.00000000	          0.00000000	         -0.00000000	         -0.00000000	          0.00000000	         -0.00000000	         -0.16618237	         -4.58426197	          1.58825175	          0.05744768	          0.00000000	          0.01395627	          0.00000000	         -0.00000000	          0.00000000	          0.00000000	         -0.35321849	          0.00000000	
          1.57000000	          0.00000000	          0.00000000	         -0.00000000	         -0.00000000	          0.00000000	         -0.00000000	         -0.39922588	         -5.34967279	          1.49458808	          0.05255354	          0.00000000	          0.01280563	          0.00000000	         -0.00000000	          0.00000000	          0.00000000	         -0.27737895	          0.00000000	
          1.57100000	          0.00000000	          0.00000000	         -0.00000000	         -0.00000000	          0.00000000	         -0.00000000	         -0.61094648	         -6.02979003	          1.40324038	          0.04787693	          0.00000000	          0.01170444	          0.00000000	         -0.00000000	          0.00000000	          0.00000000	         -0.20693945	          0.00000000	
          1.57200000	          0.00000000	          0.00000000	         -0.00000000	         -0.00000000	          0.00000000	         -0.00000000	         -0.80235709	         -6.62929569	          1.31435693	          0.04341703	          0.00000000	          0.01065264	          0.00000000	         -0.00000000	          0.00000000	          0.00000000	         -0.14170703	          0.00000000	
          1.57300000	          0.00000000	          0.00000000	         -0.00000000	         -0.00000000	          0.00000000	         -0.00000000	         -0.97446125	         -7.15277832	          1.22806406	          0.03917226	          0.00000000	          0.00965002	          0.00000000	         -0.00000000	          0.00000000	          0.00000000	         -0.08148547	          0.00000000	
          1.57400000	          0.00000000	          0.00000000	         -0.00000000	         -0.00000000	          0.00000000	         -0.00000000	         -1.12825014	         -7.60472358	          1.14446761	          0.03514038	          0.00000000	          0.00869618	          0.00000000	         -0.00000000	          0.00000000	          0.00000000	         -0.02607628	          0.00000000	
          1.57500000	          0.00000000	          0.00000000	         -0.00000000	         -0.00000000	          0.00000000	         -0.00000000	         -1.26469986	         -7.98950610	          1.06365420	          0.03131853	          0.00000000	          0.00779058	          0.00000000	         -0.00000000	          0.00000000	          0.00000000	          0.02472033	          0.00000000	
